<svg width="167" height="45" viewBox="0 0 167 45" fill="none" xmlns="http://www.w3.org/2000/svg">
<path d="M1.33081 23.2287V5.02044C1.33081 3.22837 2.78984 1.79029 4.60803 1.79029C4.72026 1.79029 4.83249 1.79029 4.94473 1.81242C5.14675 1.21506 5.461 0.307967 5.86504 0.108849C6.26908 -0.0902696 6.8078 0.21947 7.23429 0.52921C7.41386 0.661955 7.57099 0.772577 7.70567 0.861074C9.36672 2.01154 11.4767 2.2549 13.4969 2.4319C15.0008 2.56464 16.5048 2.67526 18.0087 2.76376C18.8617 2.83013 19.7371 2.87438 20.5901 2.91863C22.3409 3.00713 24.3162 3.20625 25.4161 4.57795C26.1344 5.46292 26.2915 6.67976 26.4037 7.80809C26.4486 8.11783 26.4711 8.47182 26.314 8.73731C26.1344 9.06918 25.7528 9.22405 25.3937 9.2683C25.2365 9.29042 25.0569 9.26829 24.8998 9.24617C24.6978 9.22405 24.4958 9.15767 24.2938 9.11343C22.2511 8.60457 20.186 8.2727 18.076 8.2727C15.3824 8.29483 12.7337 8.91431 10.0401 8.91431C9.81565 8.91431 9.59119 8.91431 9.36672 8.89218C8.87289 8.87006 8.35662 8.82581 7.86279 8.78156V23.2287H1.33081Z" fill="#F400FF"/>
<path d="M7.90769 8.0957V29.2244C7.90769 32.8085 4.96717 35.7068 1.33081 35.7068V8.49394L7.90769 8.0957Z" fill="url(#paint0_linear_2182_4248)"/>
<path d="M19.1535 4.71209C12.3521 3.93774 9.79321 1.83594 9.79321 1.83594C10.9829 2.18993 12.2623 2.32267 13.4969 2.43329C15.0008 2.56604 16.5048 2.67666 18.0087 2.76516C18.8617 2.83153 19.7371 2.87578 20.5901 2.92003C22.3409 3.00852 24.3162 3.20764 25.4161 4.57935C26.1344 5.46432 26.2915 6.68115 26.4038 7.80949C26.4486 8.11923 26.4711 8.47322 26.314 8.73871C26.1344 9.07057 25.7528 9.22544 25.3937 9.26969C25.4161 9.29181 25.9548 5.48644 19.1535 4.71209Z" fill="url(#paint1_linear_2182_4248)"/>
<path d="M6.24659 1.41595C5.68542 1.85844 4.94468 1.99118 4.27128 2.2788C2.81225 2.94253 1.7797 4.42485 1.71236 5.99567C1.71236 6.06205 1.71236 6.17267 1.68991 6.28329C2.04906 6.52666 2.31842 6.96914 2.34087 7.45588C2.38576 8.07536 2.09395 8.67271 1.82459 9.15944C1.7797 9.22582 1.37566 9.95592 1.35321 9.95592C0.859387 9.46918 0.343114 8.8497 0.0962005 8.14173C-0.17316 7.3895 0.141094 6.41604 0.814494 6.17267C1.03896 3.56201 2.8347 1.15046 5.28138 0.15487C5.70787 -0.0221243 6.29148 -0.110621 6.56084 0.243367C6.58329 0.287615 6.62818 0.331864 6.62818 0.376112C6.80776 0.730101 6.56084 1.17259 6.24659 1.41595Z" fill="url(#paint2_linear_2182_4248)"/>
<path d="M32.8011 21.7236V39.9319C32.8011 41.724 31.342 43.162 29.5239 43.162C29.4116 43.162 29.2994 43.162 29.1872 43.1399C28.9851 43.7373 28.6709 44.6444 28.2668 44.8435C27.8628 45.0426 27.3241 44.7329 26.8976 44.4231C26.718 44.2904 26.5609 44.1798 26.4262 44.0913C24.7652 42.9408 22.6552 42.6974 20.635 42.5204C19.1311 42.3877 17.6271 42.2771 16.1232 42.1886C15.2702 42.1222 14.3948 42.078 13.5418 42.0337C11.791 41.9452 9.81568 41.7461 8.71579 40.3744C7.9975 39.4894 7.84037 38.2726 7.72814 37.1442C7.68324 36.8345 7.6608 36.4805 7.81792 36.215C7.9975 35.8832 8.37909 35.7283 8.73824 35.684C8.89537 35.6619 9.07494 35.684 9.23206 35.7062C9.43409 35.7283 9.63611 35.7947 9.83813 35.8389C11.8808 36.3478 13.9459 36.6796 16.0559 36.6796C18.7495 36.6575 21.3982 36.038 24.0918 36.038C24.3162 36.038 24.5407 36.038 24.7652 36.0602C25.259 36.0823 25.7753 36.1265 26.2691 36.1708V21.7236H32.8011Z" fill="#F400FF"/>
<path d="M26.2241 36.8578V15.707C26.2241 12.1229 29.1646 9.22461 32.801 9.22461V36.4596L26.2241 36.8578Z" fill="url(#paint3_linear_2182_4248)"/>
<path d="M14.9784 40.2441C21.7798 41.0185 24.3387 43.1203 24.3387 43.1203C23.149 42.7663 21.8695 42.6335 20.635 42.5229C19.131 42.3902 17.6271 42.2796 16.1232 42.1911C15.2702 42.1247 14.3948 42.0804 13.5418 42.0362C11.791 41.9477 9.81568 41.7486 8.71579 40.3769C7.9975 39.4919 7.84037 38.2751 7.72814 37.1467C7.68324 36.837 7.6608 36.483 7.81792 36.2175C7.9975 35.8856 8.37909 35.7308 8.73824 35.6865C8.71579 35.6865 8.17707 39.4698 14.9784 40.2441Z" fill="url(#paint4_linear_2182_4248)"/>
<path d="M27.8851 43.5392C28.4463 43.0967 29.187 42.9639 29.8604 42.6763C31.3194 42.0347 32.352 40.5524 32.4418 38.9816C32.4418 38.9152 32.4418 38.8046 32.4642 38.694C32.1051 38.4506 31.8357 38.0081 31.8133 37.5214C31.7684 36.9019 32.0602 36.3045 32.3295 35.8178C32.352 35.7514 32.7785 35.0213 32.8009 35.0435C33.2947 35.5302 33.811 36.1497 34.0579 36.8577C34.3273 37.6099 34.013 38.5833 33.3396 38.8267C33.1152 41.4374 31.3194 43.8489 28.8727 44.8445C28.4463 45.0215 27.8626 45.11 27.5933 44.756C27.5708 44.7118 27.5259 44.6675 27.5259 44.6233C27.3239 44.2472 27.5708 43.8047 27.8851 43.5392Z" fill="url(#paint5_linear_2182_4248)"/>
<path d="M71.1894 31.3065C66.2887 31.3065 61.426 31.344 56.5253 31.344C55.9934 31.344 55.4616 31.344 54.9297 31.344C54.9297 31.344 54.9297 23.1437 54.9297 22.582C54.9297 19.2869 54.8537 15.9918 54.9297 12.7342C54.9677 10.4875 53.98 8.35321 52.1185 7.00522C50.9028 6.10656 49.4212 5.65723 47.9396 5.65723C47.8256 6.40611 47.9396 7.22989 47.9396 7.94133C47.9396 9.73865 47.9396 11.536 47.9396 13.2959C47.9396 17.4896 47.9776 21.6459 47.9776 25.8397C47.9776 29.2846 47.9776 32.692 47.9776 36.1369C47.9776 36.6611 47.9776 37.1853 47.9776 37.7095H53.3341H54.8917H64.9971V37.6721C64.9971 37.8218 67.1625 37.1853 67.3524 37.1104C68.0742 36.7734 68.7581 36.3241 69.3279 35.7624C70.5816 34.5642 71.1134 33.029 71.1894 31.3065Z" fill="#2D2A36"/>
<path d="M75.748 37.7089V5.50684H100.366V11.7975H82.8522V18.3502H98.2761V24.6409H82.8522V31.4183H100.593V37.7089H75.748Z" fill="#2D2A36"/>
<path d="M131.327 37.7109L128.326 30.4842H114.536L111.535 37.7109H104.203L118.221 5.28418H124.869L138.887 37.7109H131.327ZM121.45 13.784L117.119 24.231H125.819L121.45 13.784Z" fill="#2D2A36"/>
<path d="M167 31.3065C162.1 31.3065 157.237 31.344 152.336 31.344C151.804 31.344 151.272 31.344 150.741 31.344C150.741 31.344 150.741 23.1437 150.741 22.582C150.741 19.2869 150.665 15.9918 150.741 12.7342C150.778 10.4875 149.791 8.35321 147.929 7.00522C146.714 6.10656 145.232 5.65723 143.75 5.65723C143.636 6.40611 143.75 7.22989 143.75 7.94133C143.75 9.73865 143.75 11.536 143.75 13.2959C143.75 17.4896 143.788 21.6459 143.788 25.8397C143.788 29.2846 143.788 32.692 143.788 36.1369C143.788 36.6611 143.788 37.1853 143.788 37.7095H149.145H150.703H160.808V37.6721C160.808 37.8218 162.973 37.1853 163.163 37.1104C163.885 36.7734 164.569 36.3241 165.139 35.7624C166.354 34.5267 166.886 32.9915 167 31.3065Z" fill="#2D2A36"/>
<defs>
<linearGradient id="paint0_linear_2182_4248" x1="4.61743" y1="20.3758" x2="4.61743" y2="33.6553" gradientUnits="userSpaceOnUse">
<stop offset="1.38522e-07" stop-color="#F400FF"/>
<stop offset="0.9061" stop-color="#FFCA1A"/>
</linearGradient>
<linearGradient id="paint1_linear_2182_4248" x1="17.5041" y1="6.27718" x2="20.2866" y2="1.38746" gradientUnits="userSpaceOnUse">
<stop offset="2.13112e-07" stop-color="#F400FF"/>
<stop offset="1" stop-color="#FFCA1A"/>
</linearGradient>
<linearGradient id="paint2_linear_2182_4248" x1="8.24935" y1="0.710609" x2="0.597962" y2="7.31306" gradientUnits="userSpaceOnUse">
<stop offset="0.362" stop-color="#F400FF"/>
<stop offset="1" stop-color="#FFCA1A"/>
</linearGradient>
<linearGradient id="paint3_linear_2182_4248" x1="29.5124" y1="24.5872" x2="29.5124" y2="11.3078" gradientUnits="userSpaceOnUse">
<stop offset="1.38522e-07" stop-color="#F400FF"/>
<stop offset="0.9061" stop-color="#FFCA1A"/>
</linearGradient>
<linearGradient id="paint4_linear_2182_4248" x1="16.6258" y1="38.6885" x2="13.8432" y2="43.5782" gradientUnits="userSpaceOnUse">
<stop offset="2.13112e-07" stop-color="#F400FF"/>
<stop offset="1" stop-color="#FFCA1A"/>
</linearGradient>
<linearGradient id="paint5_linear_2182_4248" x1="25.8803" y1="44.254" x2="33.5317" y2="37.6516" gradientUnits="userSpaceOnUse">
<stop offset="0.362" stop-color="#F400FF"/>
<stop offset="1" stop-color="#FFCA1A"/>
</linearGradient>
</defs>
</svg>
