<svg width="51" height="50" viewBox="0 0 51 50" fill="none" xmlns="http://www.w3.org/2000/svg">
<path d="M19 36.1874C28.9411 36.1874 36.9999 28.1286 36.9999 18.1875C36.9999 8.24636 28.9411 0.1875 19 0.1875C9.05886 0.1875 1 8.24636 1 18.1875C1 28.1286 9.05886 36.1874 19 36.1874Z" fill="#FFDED5"/>
<path d="M21.7606 48.1859H31.5533C35.5061 48.1267 38.4149 43.1355 37.6893 37.8907L36.8749 32.0075C36.4405 28.8643 34.4069 26.5859 32.0405 26.5859H21.1606C18.7918 26.5859 16.7606 28.8643 16.3238 32.0067L15.5118 37.8899C14.7862 43.1347 17.695 48.1259 21.6478 48.1851L21.7606 48.1859Z" fill="#EAEAEA" stroke="#4C241D" stroke-width="2.15549" stroke-linecap="round" stroke-linejoin="round"/>
<path d="M33.0003 44.9873H35.4003C36.249 44.9873 37.0629 45.3244 37.663 45.9246C38.2631 46.5247 38.6003 47.3386 38.6003 48.1873H29.8003" fill="white"/>
<path d="M33.0003 44.9873H35.4003C36.249 44.9873 37.0629 45.3244 37.663 45.9246C38.2631 46.5247 38.6003 47.3386 38.6003 48.1873H29.8003" stroke="#4C241D" stroke-width="2.15549" stroke-linecap="round" stroke-linejoin="round"/>
<path d="M20.2001 44.9873H17.8001C16.9514 44.9873 16.1375 45.3244 15.5374 45.9246C14.9372 46.5247 14.6001 47.3386 14.6001 48.1873H23.4001" fill="white"/>
<path d="M20.2001 44.9873H17.8001C16.9514 44.9873 16.1375 45.3244 15.5374 45.9246C14.9372 46.5247 14.6001 47.3386 14.6001 48.1873H23.4001" stroke="#4C241D" stroke-width="2.15549" stroke-linecap="round" stroke-linejoin="round"/>
<path d="M45.7998 34.5879V36.1879" stroke="#4C241D" stroke-width="2.15549" stroke-linecap="round" stroke-linejoin="round"/>
<path d="M45.7998 39.3877V40.9877" stroke="#4C241D" stroke-width="2.15549" stroke-linecap="round" stroke-linejoin="round"/>
<path d="M42.6001 37.7871H44.2001" stroke="#4C241D" stroke-width="2.15549" stroke-linecap="round" stroke-linejoin="round"/>
<path d="M47.4004 37.7871H49.0004" stroke="#4C241D" stroke-width="2.15549" stroke-linecap="round" stroke-linejoin="round"/>
<path d="M8.79172 27.4331C9.26404 27.4331 9.64692 27.0502 9.64692 26.5779C9.64692 26.1055 9.26404 25.7227 8.79172 25.7227C8.31941 25.7227 7.93652 26.1055 7.93652 26.5779C7.93652 27.0502 8.31941 27.4331 8.79172 27.4331Z" fill="#4C241D"/>
<path d="M46.3918 21.8315C46.8641 21.8315 47.247 21.4486 47.247 20.9763C47.247 20.504 46.8641 20.1211 46.3918 20.1211C45.9195 20.1211 45.5366 20.504 45.5366 20.9763C45.5366 21.4486 45.9195 21.8315 46.3918 21.8315Z" fill="#4C241D"/>
<path d="M3.80029 37.7852C4.90486 37.7852 5.80029 36.8897 5.80029 35.7852C5.80029 34.6806 4.90486 33.7852 3.80029 33.7852C2.69572 33.7852 1.80029 34.6806 1.80029 35.7852C1.80029 36.8897 2.69572 37.7852 3.80029 37.7852Z" stroke="#4C241D" stroke-width="2.15549" stroke-linecap="round" stroke-linejoin="round"/>
<path d="M24.2003 32.9873H21.8003" stroke="#4C241D" stroke-width="2.15549" stroke-linecap="round" stroke-linejoin="round"/>
<path d="M24.2003 35.3848H21.8003" stroke="#4C241D" stroke-width="2.15549" stroke-linecap="round" stroke-linejoin="round"/>
<path d="M24.2003 37.7871H21.8003" stroke="#4C241D" stroke-width="2.15549" stroke-linecap="round" stroke-linejoin="round"/>
<path d="M18.6 31.3855H20.9264C21.1462 31.3854 21.3639 31.4287 21.567 31.5127C21.7701 31.5968 21.9546 31.7201 22.11 31.8755C22.2655 32.0309 22.3887 32.2155 22.4728 32.4186C22.5569 32.6217 22.6001 32.8393 22.6 33.0591V37.7119C22.6001 37.9317 22.5569 38.1494 22.4728 38.3525C22.3887 38.5556 22.2655 38.7402 22.11 38.8956C21.9546 39.051 21.7701 39.1743 21.567 39.2583C21.3639 39.3424 21.1462 39.3856 20.9264 39.3855H15.7552C15.0245 39.3855 14.3237 39.0953 13.807 38.5786C13.2903 38.0619 13 37.3611 13 36.6303V33.7855C13 32.3003 13.59 30.8759 14.6402 29.8257C15.6904 28.7755 17.1148 28.1855 18.6 28.1855H25.8" fill="white"/>
<path d="M18.6 31.3855H20.9264C21.1462 31.3854 21.3639 31.4287 21.567 31.5127C21.7701 31.5968 21.9546 31.7201 22.11 31.8755C22.2655 32.0309 22.3887 32.2155 22.4728 32.4186C22.5569 32.6217 22.6001 32.8393 22.6 33.0591V37.7119C22.6001 37.9317 22.5569 38.1494 22.4728 38.3525C22.3887 38.5556 22.2655 38.7402 22.11 38.8956C21.9546 39.051 21.7701 39.1743 21.567 39.2583C21.3639 39.3424 21.1462 39.3856 20.9264 39.3855H15.7552C15.0245 39.3855 14.3237 39.0953 13.807 38.5786C13.2903 38.0619 13 37.3611 13 36.6303V33.7855C13 32.3003 13.59 30.8759 14.6402 29.8257C15.6904 28.7755 17.1148 28.1855 18.6 28.1855H25.8" stroke="#4C241D" stroke-width="2.15549" stroke-linecap="round" stroke-linejoin="round"/>
<path d="M29 32.9873H31.4" stroke="#4C241D" stroke-width="2.15549" stroke-linecap="round" stroke-linejoin="round"/>
<path d="M29 35.3848H31.4" stroke="#4C241D" stroke-width="2.15549" stroke-linecap="round" stroke-linejoin="round"/>
<path d="M29 37.7871H31.4" stroke="#4C241D" stroke-width="2.15549" stroke-linecap="round" stroke-linejoin="round"/>
<path d="M34.6 31.3855H32.2736C32.0538 31.3854 31.8361 31.4287 31.633 31.5127C31.4299 31.5968 31.2454 31.7201 31.0899 31.8755C30.9345 32.0309 30.8112 32.2155 30.7272 32.4186C30.6431 32.6217 30.5999 32.8393 30.6 33.0591V37.7119C30.5999 37.9317 30.6431 38.1494 30.7272 38.3525C30.8112 38.5556 30.9345 38.7402 31.0899 38.8956C31.2454 39.051 31.4299 39.1743 31.633 39.2583C31.8361 39.3424 32.0538 39.3856 32.2736 39.3855H37.4448C38.1755 39.3855 38.8763 39.0953 39.393 38.5786C39.9097 38.0619 40.2 37.3611 40.2 36.6303V33.7855C40.2 32.3003 39.61 30.8759 38.5598 29.8257C37.5096 28.7755 36.0852 28.1855 34.6 28.1855H21" fill="white"/>
<path d="M34.6 31.3855H32.2736C32.0538 31.3854 31.8361 31.4287 31.633 31.5127C31.4299 31.5968 31.2454 31.7201 31.0899 31.8755C30.9345 32.0309 30.8112 32.2155 30.7272 32.4186C30.6431 32.6217 30.5999 32.8393 30.6 33.0591V37.7119C30.5999 37.9317 30.6431 38.1494 30.7272 38.3525C30.8112 38.5556 30.9345 38.7402 31.0899 38.8956C31.2454 39.051 31.4299 39.1743 31.633 39.2583C31.8361 39.3424 32.0538 39.3856 32.2736 39.3855H37.4448C38.1755 39.3855 38.8763 39.0953 39.393 38.5786C39.9097 38.0619 40.2 37.3611 40.2 36.6303V33.7855C40.2 32.3003 39.61 30.8759 38.5598 29.8257C37.5096 28.7755 36.0852 28.1855 34.6 28.1855H21" stroke="#4C241D" stroke-width="2.15549" stroke-linecap="round" stroke-linejoin="round"/>
<path d="M17.914 10.1867C17.862 9.59117 17.6933 9.01172 17.4174 8.48141C17.1415 7.9511 16.7639 7.48033 16.306 7.09597C15.8482 6.71161 15.3191 6.42119 14.7491 6.24129C14.179 6.0614 13.5791 5.99554 12.9836 6.0475L8.77718 6.4139C7.90369 6.49015 7.09626 6.91022 6.53247 7.58173C5.96868 8.25324 5.69469 9.12119 5.77078 9.99469L6.02998 12.9651C6.08344 13.5792 6.25736 14.1768 6.5418 14.7237C6.82624 15.2706 7.21563 15.7562 7.68774 16.1526C8.15985 16.549 8.70542 16.8485 9.2933 17.034C9.88118 17.2196 10.4998 17.2875 11.114 17.2339L14.6716 16.9235" fill="#EAEAEA"/>
<path d="M17.914 10.1867C17.862 9.59117 17.6933 9.01172 17.4174 8.48141C17.1415 7.9511 16.7639 7.48033 16.306 7.09597C15.8482 6.71161 15.3191 6.42119 14.7491 6.24129C14.179 6.0614 13.5791 5.99554 12.9836 6.0475L8.77718 6.4139C7.90369 6.49015 7.09626 6.91022 6.53247 7.58173C5.96868 8.25324 5.69469 9.12119 5.77078 9.99469L6.02998 12.9651C6.08344 13.5792 6.25736 14.1768 6.5418 14.7237C6.82624 15.2706 7.21563 15.7562 7.68774 16.1526C8.15985 16.549 8.70542 16.8485 9.2933 17.034C9.88118 17.2196 10.4998 17.2875 11.114 17.2339L14.6716 16.9235" stroke="#4C241D" stroke-width="2.15549" stroke-linecap="round" stroke-linejoin="round"/>
<path d="M34.5581 10.1871C34.6634 8.98465 35.242 7.87329 36.1666 7.09738C37.0911 6.32147 38.2861 5.94453 39.4885 6.04948L43.6949 6.41587C44.5684 6.49212 45.3758 6.9122 45.9396 7.58371C46.5034 8.25522 46.7774 9.12317 46.7013 9.99667L46.4405 12.9671C46.387 13.5812 46.2131 14.1788 45.9287 14.7257C45.6442 15.2726 45.2548 15.7582 44.7827 16.1546C44.3106 16.551 43.7651 16.8505 43.1772 17.036C42.5893 17.2216 41.9706 17.2895 41.3565 17.2359L37.8005 16.9255" fill="#EAEAEA"/>
<path d="M34.5581 10.1871C34.6634 8.98465 35.242 7.87329 36.1666 7.09738C37.0911 6.32147 38.2861 5.94453 39.4885 6.04948L43.6949 6.41587C44.5684 6.49212 45.3758 6.9122 45.9396 7.58371C46.5034 8.25522 46.7774 9.12317 46.7013 9.99667L46.4405 12.9671C46.387 13.5812 46.2131 14.1788 45.9287 14.7257C45.6442 15.2726 45.2548 15.7582 44.7827 16.1546C44.3106 16.551 43.7651 16.8505 43.1772 17.036C42.5893 17.2216 41.9706 17.2895 41.3565 17.2359L37.8005 16.9255" stroke="#4C241D" stroke-width="2.15549" stroke-linecap="round" stroke-linejoin="round"/>
<path d="M40.2002 19.8548C40.2002 26.2892 32.7834 29.706 26.4666 29.706C20.1498 29.706 12.2002 26.2892 12.2002 19.8548C12.2002 13.4204 18.4858 6.66603 26.4666 6.66603C28.2361 6.62324 29.9967 6.93118 31.6466 7.57208C33.2966 8.21299 34.8034 9.17418 36.0801 10.4002C37.3568 11.6263 38.3782 13.0929 39.0853 14.7156C39.7924 16.3383 40.1713 18.085 40.2002 19.8548Z" fill="#EAEAEA" stroke="#4C241D" stroke-width="2.15549" stroke-linecap="round" stroke-linejoin="round"/>
<path d="M20.5999 16.1871C21.2626 16.1871 21.7999 15.6498 21.7999 14.9871C21.7999 14.3244 21.2626 13.7871 20.5999 13.7871C19.9372 13.7871 19.3999 14.3244 19.3999 14.9871C19.3999 15.6498 19.9372 16.1871 20.5999 16.1871Z" fill="#4C241D"/>
<path d="M32.0569 16.1871C32.7197 16.1871 33.2569 15.6498 33.2569 14.9871C33.2569 14.3244 32.7197 13.7871 32.0569 13.7871C31.3942 13.7871 30.8569 14.3244 30.8569 14.9871C30.8569 15.6498 31.3942 16.1871 32.0569 16.1871Z" fill="#4C241D"/>
<path d="M26.6001 48.1871V41.7871" stroke="#4C241D" stroke-width="2.15549" stroke-linecap="round" stroke-linejoin="round"/>
<path d="M6.59961 48.1865H46.5995" stroke="#4C241D" stroke-width="2.15549" stroke-linecap="round" stroke-linejoin="round"/>
<path d="M28.1625 26.5872H25.0377C24.7516 26.6022 24.4657 26.554 24.2003 26.4462C23.9349 26.3383 23.6966 26.1733 23.5021 25.963C23.3076 25.7526 23.1618 25.502 23.0751 25.229C22.9883 24.956 22.9627 24.6672 23.0001 24.3832L23.9121 19.3688C24.0142 18.909 24.2737 18.4994 24.6457 18.2106C25.0178 17.9218 25.479 17.7721 25.9497 17.7872H27.2505C27.7211 17.7722 28.1821 17.9221 28.5539 18.2109C28.9258 18.4996 29.1852 18.9092 29.2873 19.3688L30.1993 24.3832C30.2366 24.6671 30.2111 24.9558 30.1243 25.2288C30.0376 25.5018 29.8919 25.7523 29.6975 25.9626C29.5031 26.173 29.2649 26.338 28.9996 26.4459C28.7343 26.5538 28.4485 26.6021 28.1625 26.5872Z" fill="#6B4F5B" stroke="#4C241D" stroke-width="2.15549" stroke-linecap="round" stroke-linejoin="round"/>
</svg>
