<svg width="49" height="55" viewBox="0 0 49 55" fill="none" xmlns="http://www.w3.org/2000/svg">
<path d="M19.8462 54.1875C30.8069 54.1875 39.6924 45.302 39.6924 34.3413C39.6924 23.3806 30.8069 14.4951 19.8462 14.4951C8.88544 14.4951 0 23.3806 0 34.3413C0 45.302 8.88544 54.1875 19.8462 54.1875Z" fill="#E5EFEF"/>
<path d="M10.1538 44.0341C11.1734 44.0341 11.9999 43.2076 11.9999 42.188C11.9999 41.1683 11.1734 40.3418 10.1538 40.3418C9.13417 40.3418 8.30762 41.1683 8.30762 42.188C8.30762 43.2076 9.13417 44.0341 10.1538 44.0341Z" stroke="#4C241D" stroke-width="2.48711" stroke-linecap="round" stroke-linejoin="round"/>
<path d="M47.0769 22.8042C47.5867 22.8042 48 22.3909 48 21.8811C48 21.3713 47.5867 20.958 47.0769 20.958C46.5671 20.958 46.1538 21.3713 46.1538 21.8811C46.1538 22.3909 46.5671 22.8042 47.0769 22.8042Z" fill="#4C241D"/>
<path d="M42.4619 2V3.30616" stroke="#4C241D" stroke-width="2.48711" stroke-linecap="round" stroke-linejoin="round"/>
<path d="M42.4619 7.22363V8.52979" stroke="#4C241D" stroke-width="2.48711" stroke-linecap="round" stroke-linejoin="round"/>
<path d="M39.1968 5.26367H40.5029" stroke="#4C241D" stroke-width="2.48711" stroke-linecap="round" stroke-linejoin="round"/>
<path d="M44.4204 5.26367H45.7266" stroke="#4C241D" stroke-width="2.48711" stroke-linecap="round" stroke-linejoin="round"/>
<path d="M17.5388 33.8803C25.6956 33.8803 32.308 27.2679 32.308 19.111C32.308 10.9542 25.6956 4.3418 17.5388 4.3418C9.38195 4.3418 2.76953 10.9542 2.76953 19.111C2.76953 27.2679 9.38195 33.8803 17.5388 33.8803Z" fill="#FFCE56" stroke="#4C241D" stroke-width="2.48711" stroke-linecap="round" stroke-linejoin="round"/>
<path d="M29.5386 19.111C29.5395 16.2548 28.5215 13.4919 26.6677 11.319C24.8139 9.14611 22.2458 7.70569 19.4251 7.25667C16.6044 6.80764 13.716 7.37945 11.2791 8.86932C8.84226 10.3592 7.01671 12.6694 6.13063 15.3847C5.24455 18.1 5.35604 21.0424 6.44507 23.6828C7.53409 26.3233 9.52924 28.4888 12.0719 29.7899C14.6145 31.0911 17.5379 31.4427 20.3165 30.7815C23.0952 30.1203 25.5469 28.4897 27.2309 26.1827" stroke="#4C241D" stroke-width="2.48711" stroke-linecap="round" stroke-linejoin="round"/>
<path d="M13.8457 23.7276V15.4199H21.2303V23.7276" stroke="#4C241D" stroke-width="2.48711" stroke-linecap="round" stroke-linejoin="round"/>
<path d="M15.5695 15.4194H13.8462C13.3565 15.4194 12.8869 15.2249 12.5407 14.8787C12.1945 14.5324 12 14.0629 12 13.5732" stroke="#4C241D" stroke-width="2.48711" stroke-linecap="round" stroke-linejoin="round"/>
<path d="M32.3073 53.2651C40.4642 53.2651 47.0766 46.6526 47.0766 38.4958C47.0766 30.339 40.4642 23.7266 32.3073 23.7266C24.1505 23.7266 17.5381 30.339 17.5381 38.4958C17.5381 46.6526 24.1505 53.2651 32.3073 53.2651Z" fill="#FFCE56" stroke="#4C241D" stroke-width="2.48711" stroke-linecap="round" stroke-linejoin="round"/>
<path d="M32.3076 50.4951C38.9351 50.4951 44.3076 45.1226 44.3076 38.4951C44.3076 31.8677 38.9351 26.4951 32.3076 26.4951C25.6802 26.4951 20.3076 31.8677 20.3076 38.4951C20.3076 45.1226 25.6802 50.4951 32.3076 50.4951Z" stroke="#4C241D" stroke-width="2.48711" stroke-linecap="round" stroke-linejoin="round"/>
<path d="M28.6152 43.1104V34.8027H35.9999V43.1104" stroke="#4C241D" stroke-width="2.48711" stroke-linecap="round" stroke-linejoin="round"/>
<path d="M30.3386 34.8022H28.6152C28.1256 34.8022 27.656 34.6077 27.3098 34.2615C26.9635 33.9153 26.769 33.4457 26.769 32.9561" stroke="#4C241D" stroke-width="2.48711" stroke-linecap="round" stroke-linejoin="round"/>
</svg>
