<svg width="53" height="52" viewBox="0 0 53 52" fill="none" xmlns="http://www.w3.org/2000/svg">
<g filter="url(#filter0_d_3047_5045)">
<path d="M26.043 0.188878C13.8656 0.188878 4 10.0628 4 22.2319C4 31.9762 10.3153 40.2355 19.0678 43.1493C20.174 43.3573 20.5736 42.6754 20.5736 42.0857C20.5736 41.5622 20.5612 40.1776 20.5529 38.3398C14.4181 39.6679 13.1258 35.3764 13.1258 35.3764C12.1215 32.8359 10.6721 32.154 10.6721 32.154C8.67725 30.7914 10.8306 30.8204 10.8306 30.8204C13.0404 30.9705 14.2031 33.0867 14.2031 33.0867C16.1691 36.4592 19.3612 35.4838 20.6245 34.9162C20.8174 33.4958 21.3919 32.5191 22.0174 31.9749C17.1238 31.4224 11.9782 29.5281 11.9782 21.0815C11.9782 18.6692 12.8324 16.7046 14.2445 15.1616C14.0006 14.6091 13.2539 12.3635 14.4387 9.32707C14.4387 9.32707 16.2835 8.7388 20.5006 11.5879C22.2654 11.0988 24.139 10.8549 26.0113 10.8425C27.885 10.8549 29.7572 11.1002 31.5221 11.5879C35.7144 8.7388 37.5577 9.32707 37.5577 9.32707C38.7411 12.3635 37.9944 14.6077 37.7795 15.1616C39.1779 16.7046 40.032 18.6705 40.032 21.0815C40.032 29.5474 34.8795 31.4141 29.9804 31.9528C30.7464 32.6127 31.4642 33.9698 31.4642 36.0294C31.4642 38.9776 31.4366 41.3528 31.4366 42.0706C31.4366 42.6437 31.8224 43.3325 32.9576 43.1107C41.7748 40.2272 48.0832 31.9611 48.0832 22.2305C48.0832 10.0614 38.2176 0.1875 26.0402 0.1875L26.043 0.188878Z" fill="#B3261E"/>
</g>
<defs>
<filter id="filter0_d_3047_5045" x="0" y="0.1875" width="52.083" height="51" filterUnits="userSpaceOnUse" color-interpolation-filters="sRGB">
<feFlood flood-opacity="0" result="BackgroundImageFix"/>
<feColorMatrix in="SourceAlpha" type="matrix" values="0 0 0 0 0 0 0 0 0 0 0 0 0 0 0 0 0 0 127 0" result="hardAlpha"/>
<feOffset dy="4"/>
<feGaussianBlur stdDeviation="2"/>
<feComposite in2="hardAlpha" operator="out"/>
<feColorMatrix type="matrix" values="0 0 0 0 0 0 0 0 0 0 0 0 0 0 0 0 0 0 0.25 0"/>
<feBlend mode="normal" in2="BackgroundImageFix" result="effect1_dropShadow_3047_5045"/>
<feBlend mode="normal" in="SourceGraphic" in2="effect1_dropShadow_3047_5045" result="shape"/>
</filter>
</defs>
</svg>
