<svg width="48" height="53" viewBox="0 0 48 53" fill="none" xmlns="http://www.w3.org/2000/svg">
<g filter="url(#filter0_d_3047_5038)">
<path d="M41.0401 30.6068L37.4401 26.9868V18.0668C37.488 14.7544 36.3359 11.5366 34.1964 9.00747C32.0569 6.47833 29.0746 4.80867 25.8001 4.3068C23.8998 4.05653 21.9679 4.21443 20.1334 4.76995C18.2988 5.32547 16.6039 6.26584 15.1616 7.52832C13.7193 8.7908 12.5628 10.3464 11.7694 12.0912C10.9759 13.836 10.5636 15.73 10.5601 17.6468V26.9868L6.96015 30.6068C6.50796 31.0665 6.20131 31.6493 6.07855 32.2824C5.95578 32.9155 6.02234 33.5706 6.2699 34.1661C6.51746 34.7615 6.93505 35.2708 7.47045 35.6302C8.00585 35.9896 8.63531 36.1832 9.28015 36.1868H16.0001V36.8668C16.0936 38.8972 16.9881 40.8078 18.4876 42.1799C19.9871 43.5519 21.9695 44.2736 24.0001 44.1868C26.0308 44.2736 28.0131 43.5519 29.5127 42.1799C31.0122 40.8078 31.9067 38.8972 32.0001 36.8668V36.1868H38.7201C39.365 36.1832 39.9944 35.9896 40.5298 35.6302C41.0652 35.2708 41.4828 34.7615 41.7304 34.1661C41.978 33.5706 42.0445 32.9155 41.9217 32.2824C41.799 31.6493 41.4923 31.0665 41.0401 30.6068ZM28.0001 36.8668C27.8892 37.8288 27.4114 38.7109 26.6663 39.3294C25.9211 39.9479 24.9661 40.255 24.0001 40.1868C23.0342 40.255 22.0791 39.9479 21.334 39.3294C20.5889 38.7109 20.1111 37.8288 20.0001 36.8668V36.1868H28.0001V36.8668Z" fill="#FFCE56"/>
</g>
<defs>
<filter id="filter0_d_3047_5038" x="2.01855" y="4.19141" width="43.9634" height="48.002" filterUnits="userSpaceOnUse" color-interpolation-filters="sRGB">
<feFlood flood-opacity="0" result="BackgroundImageFix"/>
<feColorMatrix in="SourceAlpha" type="matrix" values="0 0 0 0 0 0 0 0 0 0 0 0 0 0 0 0 0 0 127 0" result="hardAlpha"/>
<feOffset dy="4"/>
<feGaussianBlur stdDeviation="2"/>
<feComposite in2="hardAlpha" operator="out"/>
<feColorMatrix type="matrix" values="0 0 0 0 0 0 0 0 0 0 0 0 0 0 0 0 0 0 0.25 0"/>
<feBlend mode="normal" in2="BackgroundImageFix" result="effect1_dropShadow_3047_5038"/>
<feBlend mode="normal" in="SourceGraphic" in2="effect1_dropShadow_3047_5038" result="shape"/>
</filter>
</defs>
</svg>
